<svg fill="#70C041" xmlns="http://www.w3.org/2000/svg" xmlns:xlink="http://www.w3.org/1999/xlink" version="1.1" x="0px" y="0px" viewBox="0 0 500 500" enable-background="new 0 0 500 500" xml:space="preserve"><g><path d="M471,319.2H29c-4.1,0-7.5-3.4-7.5-7.5V188.3c0-4.1,3.4-7.5,7.5-7.5h442c4.1,0,7.5,3.4,7.5,7.5v123.3   C478.5,315.8,475.1,319.2,471,319.2z M36.5,304.2h427V195.8h-427V304.2z"/></g><g><rect x="49" y="208.3" width="45" height="83.3"/></g><g><rect x="109" y="208.3" width="45" height="83.3"/></g><g><rect x="169" y="208.3" width="45" height="83.3"/></g><g><rect x="229" y="208.3" width="45" height="83.3"/></g><g><rect x="289" y="208.3" width="45" height="83.3"/></g><g><rect x="349" y="208.3" width="45" height="83.3"/></g></svg>